<?xml version="1.0" encoding="utf-8"?>
<!-- Generator: Adobe Illustrator 25.2.0, SVG Export Plug-In . SVG Version: 6.00 Build 0)  -->
<svg version="1.1" id="Layer_1" xmlns="http://www.w3.org/2000/svg" xmlns:xlink="http://www.w3.org/1999/xlink" x="0px" y="0px"
	 viewBox="0 0 1000 1000" style="enable-background:new 0 0 1000 1000;" xml:space="preserve">
<style type="text/css">
	.st0{fill:#9294C9;}
</style>
<g>
	<path class="st0" d="M180.23,180.23c-106.97,106.97-106.97,280.41,0,387.38s280.41,106.97,387.38,0s106.97-280.41,0-387.38
		S287.2,73.26,180.23,180.23z M510.32,510.32c-75.33,75.33-197.48,75.33-272.81,0s-75.33-197.48,0-272.81s197.48-75.33,272.81,0
		S585.66,434.99,510.32,510.32z"/>
	<path class="st0" d="M678.87,615.76l-53.34-53.33c-10.73-10.73-25.57-14.85-39.46-12.36l-34.61-34.61l-36,36l34.61,34.61
		c-2.49,13.89,1.62,28.73,12.36,39.46l53.34,53.34c0.42,5.64,2.76,11.15,7.07,15.46l170.91,170.91c4.31,4.31,9.83,6.65,15.46,7.07
		l22.87,22.87c6.42,6.42,16.83,6.42,23.25,0l39.86-39.86c6.42-6.42,6.42-16.83,0-23.25l-22.87-22.87
		c-0.42-5.64-2.76-11.15-7.07-15.46L694.33,622.83C690.02,618.52,684.5,616.18,678.87,615.76z"/>
</g>
</svg>
