<?xml version="1.0" encoding="utf-8"?>
<!-- Generator: Adobe Illustrator 25.2.0, SVG Export Plug-In . SVG Version: 6.00 Build 0)  -->
<svg version="1.1" id="Layer_1" xmlns="http://www.w3.org/2000/svg" xmlns:xlink="http://www.w3.org/1999/xlink" x="0px" y="0px"
	 viewBox="0 0 1920 1080" style="enable-background:new 0 0 1920 1080;" xml:space="preserve">
<style type="text/css">
	.st0{fill:#9498FF;}
</style>
<g>
	<path class="st0" d="M93.44,722c-22.05-8.64-40.31-21.37-54.8-38.18c-10.59-12.29-18.95-26.52-25.05-42.71
		c-3.87-10.26,1.43-21.76,11.52-26.06l31.75-13.54c10.36-4.42,22.45,0.2,27.03,10.49c6.45,14.49,15.3,26.19,26.54,35.1
		c15.83,12.55,35.31,18.82,58.46,18.82c28.5,0,50.54-6.15,66.13-18.45c15.58-12.29,23.38-29.78,23.38-52.43v-23.38
		c0-15.83-3.96-28.74-11.87-38.73c-7.92-9.99-18.27-17.66-31.05-23.02c-12.79-5.35-29.41-10.96-49.87-16.81
		c-0.49-0.24-0.91-0.42-1.28-0.55c-0.37-0.12-0.79-0.3-1.28-0.55l-4.38-1.1c-29.23-8.04-53.04-16.44-71.42-25.21
		c-18.39-8.77-34.04-22.52-46.95-41.28c-12.91-18.75-19.36-44.33-19.36-76.72v-15.71c0-29.47,6.15-54.62,18.45-75.44
		c12.29-20.82,30.26-36.66,53.89-47.49c23.62-10.83,52.24-16.26,85.86-16.26c24.84,0,46.95,4.15,66.31,12.42
		c19.36,8.28,35.62,20.46,48.77,36.53c9.44,11.54,17.13,24.91,23.06,40.09c4.01,10.27-1.01,21.93-11.08,26.41l-29.66,13.22
		c-10.3,4.59-22.6,0.22-27.22-10.06c-5.88-13.08-13.44-23.7-22.68-31.85c-13.4-11.81-29.23-17.72-47.49-17.72
		c-27.77,0-49.2,6.03-64.3,18.08c-15.11,12.06-22.65,29.17-22.65,51.33v16.81c0,16.08,4.26,29.11,12.79,39.09
		c8.52,9.99,19.12,17.66,31.79,23.02c12.66,5.36,30.08,11.2,52.24,17.54c1.22,0.24,2.31,0.55,3.29,0.91
		c0.97,0.37,1.95,0.67,2.92,0.91c1.22,0.24,2.31,0.55,3.29,0.91c0.97,0.37,2.07,0.67,3.29,0.91c27.04,8.04,49.19,16.44,66.49,25.21
		c17.29,8.77,31.97,22.29,44.02,40.55c12.06,18.27,18.08,42.87,18.08,73.8v24.48c0,29.72-6.34,54.98-19,75.81
		c-12.67,20.82-31.05,36.66-55.17,47.49s-53.22,16.26-87.32,16.26C140.62,734.97,115.48,730.64,93.44,722z"/>
	<path class="st0" d="M471.38,717.62c-20.95-11.56-36.96-28.37-48.04-50.42c-11.09-22.04-16.62-48.77-16.62-80.19v-87.68
		c0-32.64,5.35-60.52,16.08-83.66c10.72-23.14,26.24-40.79,46.58-52.98c20.33-12.18,44.88-18.27,73.62-18.27
		c27.77,0,51.51,6.27,71.24,18.82c19.73,12.55,34.76,30.93,45.12,55.17c10.35,24.24,15.53,53.28,15.53,87.13v42.38
		c0,11.5-9.32,20.82-20.82,20.82H478.69c-11.5,0-20.82-9.32-20.82-20.82v-17.54c0-11.5,9.32-20.82,20.82-20.82H606.2v-20.82
		c-0.24-24.84-5.97-44.33-17.17-58.46c-11.2-14.12-26.55-21.19-46.03-21.19c-21.43,0-38.06,7.55-49.87,22.65
		c-11.82,15.11-17.72,36.3-17.72,63.57v93.53c0,24.84,6.33,44.08,19,57.72c12.66,13.64,30.45,20.46,53.34,20.46
		c14.85,0,27.04-3.47,36.53-10.41c5.52-4.03,10.13-9.07,13.84-15.12c5.03-8.2,14.94-11.97,24.1-9.02l28.35,9.13
		c11.72,3.78,17.61,16.87,12.77,28.19c-7.85,18.36-19.34,32.85-34.49,43.45c-20.7,14.49-47.74,21.74-81.11,21.74
		C517.78,734.97,492.33,729.18,471.38,717.62z"/>
	<path class="st0" d="M818.46,717.62c-20.95-11.56-36.96-28.37-48.04-50.42c-11.09-22.04-16.62-48.77-16.62-80.19v-87.68
		c0-32.64,5.35-60.52,16.08-83.66c10.72-23.14,26.24-40.79,46.58-52.98c20.33-12.18,44.88-18.27,73.62-18.27
		c27.77,0,51.51,6.27,71.24,18.82c19.73,12.55,34.76,30.93,45.12,55.17c10.35,24.24,15.53,53.28,15.53,87.13v42.38
		c0,11.5-9.32,20.82-20.82,20.82H825.77c-11.5,0-20.82-9.32-20.82-20.82v-17.54c0-11.5,9.32-20.82,20.82-20.82h127.51v-20.82
		c-0.24-24.84-5.97-44.33-17.17-58.46c-11.2-14.12-26.55-21.19-46.03-21.19c-21.43,0-38.06,7.55-49.87,22.65
		c-11.82,15.11-17.72,36.3-17.72,63.57v93.53c0,24.84,6.33,44.08,19,57.72c12.66,13.64,30.45,20.46,53.34,20.46
		c14.85,0,27.04-3.47,36.53-10.41c5.52-4.03,10.13-9.07,13.84-15.12c5.03-8.2,14.94-11.97,24.1-9.02l28.35,9.13
		c11.72,3.78,17.61,16.87,12.77,28.19c-7.85,18.36-19.34,32.85-34.49,43.45c-20.7,14.49-47.74,21.74-81.11,21.74
		C864.86,734.97,839.41,729.18,818.46,717.62z"/>
	<path class="st0" d="M1130.83,198.28h30.32c11.5,0,20.82,9.32,20.82,20.82v489.56c0,11.5-9.32,20.82-20.82,20.82h-30.32
		c-11.5,0-20.82-9.32-20.82-20.82V219.1C1110.01,207.6,1119.33,198.28,1130.83,198.28z M1146.43,583.44l162.67-224.57
		c3.92-5.41,10.19-8.61,16.86-8.61h27.12c17.34,0,27.08,19.95,16.43,33.62l-189.95,243.79c-12.24,15.7-37.42,6.93-37.25-12.97
		l0.16-19.22C1142.5,591.16,1143.89,586.95,1146.43,583.44z M1232.33,510.42l15.71-18.02c9.47-10.86,26.84-9.06,33.88,3.52
		L1395.2,698.5c7.76,13.88-2.27,30.99-18.18,30.99h-30.55c-7.69,0-14.76-4.24-18.37-11.02l-98.43-184.56
		C1225.59,526.28,1226.65,516.94,1232.33,510.42z"/>
	<path class="st0" d="M1530.15,630.12c0,10.23,2.19,18.15,6.58,23.75c4.38,5.61,10.6,8.4,18.63,8.4h38.48
		c11.5,0,20.82,9.32,20.82,20.82v26.3c0,11.5-9.32,20.82-20.82,20.82h-46.89c-28.26,0-50.11-8.77-65.58-26.3
		c-15.47-17.54-23.2-42.25-23.2-74.17V219.1c0-11.5,9.32-20.82,20.82-20.82h30.32c11.5,0,20.82,9.32,20.82,20.82v411.02H1530.15z"/>
	<path class="st0" d="M1648.73,350.26h28.89c9.19,0,17.29,6.02,19.94,14.81l92.23,305.96c1.49,4.94,1.09,10.25-1.11,14.91
		l-34.21,72.32c-0.26,0.56-1.07,0.5-1.26-0.08l-124.27-380.64C1624.54,364.09,1634.57,350.26,1648.73,350.26z M1889.58,350.26
		c13.9,0,23.9,13.37,19.98,26.7l-129.88,441.3c-4.87,16.31-12,29.59-21.37,39.82c-9.38,10.23-21.25,17.72-35.62,22.47
		s-31.79,7.12-52.24,7.12H31.24c-11.5,0-20.82-9.32-20.82-20.82v-27.04c0-11.5,9.32-20.82,20.82-20.82h1639.2
		c15.59,0,27.77-3.17,36.53-9.5c8.77-6.34,15.47-16.68,20.09-31.05l113.08-412.86c2.48-9.05,10.7-15.32,20.08-15.32H1889.58z"/>
</g>
</svg>
